<svg width="147" height="190" viewBox="0 0 147 190" fill="none" xmlns="http://www.w3.org/2000/svg">
<path fill-rule="evenodd" clip-rule="evenodd" d="M99.5331 77.9518L120.545 57.9645L116.41 53.6172L97.5715 71.5368L81.375 54.5097L79.3073 52.336L77.1336 54.4037L57.5706 73.0125L43.4417 58.1591L41.3741 55.9854L39.2004 58.053L19.6374 76.6619L5.16384 61.4462L3.09619 59.2725L0.92252 61.3401L-19.0028 80.2935L-14.8675 84.6409L2.88414 67.7551L17.3577 82.9708L19.4253 85.1445L21.599 83.0768L41.162 64.468L55.2909 79.3215L57.3586 81.4951L59.5322 79.4275L79.0953 60.8187L95.2918 77.8458L97.3595 80.0194L99.5331 77.9518ZM97.6422 97.0024L99.8159 94.9347L120.828 74.9475L116.693 70.6001L97.8543 88.5197L81.6577 71.4926L79.5901 69.319L77.4164 71.3866L57.8534 89.9954L43.7245 75.142L41.6568 72.9683L39.4832 75.036L19.9201 93.6448L5.44662 78.4291L3.37897 76.2554L1.2053 78.3231L-18.72 97.2765L-14.5847 101.624L3.16692 84.7381L17.6404 99.9537L19.7081 102.127L21.8818 100.06L41.4448 81.451L55.5737 96.3044L57.6413 98.4781L59.815 96.4104L79.378 77.8016L95.5746 94.8287L97.6422 97.0024ZM100.099 111.918L97.925 113.985L95.8574 111.812L79.6608 94.7845L60.0978 113.393L57.9241 115.461L55.8565 113.287L41.7276 98.4339L22.1645 117.043L19.9909 119.11L17.9232 116.937L3.44971 101.721L-14.3019 118.607L-18.4372 114.259L1.48809 95.306L3.66176 93.2384L5.7294 95.412L20.2029 110.628L39.766 92.0189L41.9396 89.9513L44.0073 92.1249L58.1362 106.978L77.6992 88.3696L79.8729 86.3019L81.9405 88.4756L98.1371 105.503L116.976 87.5831L121.111 91.9304L100.099 111.918ZM98.2078 130.968L100.381 128.901L121.394 108.913L117.258 104.566L98.4199 122.486L82.2233 105.459L80.1557 103.285L77.982 105.352L58.419 123.961L44.2901 109.108L42.2224 106.934L40.0487 109.002L20.4857 127.611L6.01219 112.395L3.94454 110.221L1.77087 112.289L-18.1544 131.242L-14.0192 135.59L3.73249 118.704L18.206 133.92L20.2737 136.093L22.4473 134.026L42.0104 115.417L56.1393 130.27L58.2069 132.444L60.3806 130.376L79.9436 111.767L96.1402 128.795L98.2078 130.968Z" fill="#5677FF"/>
</svg>
