<svg width="150" height="190" viewBox="0 0 150 190" fill="none" xmlns="http://www.w3.org/2000/svg">
<path fill-rule="evenodd" clip-rule="evenodd" d="M143.533 77.9518L164.545 57.9645L160.41 53.6172L141.572 71.5368L125.375 54.5097L123.307 52.336L121.134 54.4037L101.571 73.0125L87.4417 58.1591L85.3741 55.9854L83.2004 58.053L63.6374 76.6619L49.1638 61.4462L47.0962 59.2725L44.9225 61.3401L24.9972 80.2935L29.1325 84.6409L46.8841 67.7551L61.3577 82.9708L63.4253 85.1445L65.599 83.0768L85.162 64.468L99.2909 79.3215L101.359 81.4951L103.532 79.4275L123.095 60.8187L139.292 77.8458L141.359 80.0194L143.533 77.9518ZM141.642 97.0024L143.816 94.9347L164.828 74.9475L160.693 70.6001L141.854 88.5197L125.658 71.4926L123.59 69.319L121.416 71.3866L101.853 89.9954L87.7245 75.142L85.6568 72.9683L83.4832 75.036L63.9201 93.6448L49.4466 78.4291L47.379 76.2554L45.2053 78.3231L25.28 97.2765L29.4153 101.624L47.1669 84.7381L61.6404 99.9537L63.7081 102.127L65.8818 100.06L85.4448 81.451L99.5737 96.3044L101.641 98.4781L103.815 96.4104L123.378 77.8016L139.575 94.8287L141.642 97.0024ZM144.099 111.918L141.925 113.985L139.857 111.812L123.661 94.7845L104.098 113.393L101.924 115.461L99.8565 113.287L85.7276 98.4339L66.1645 117.043L63.9909 119.11L61.9232 116.937L47.4497 101.721L29.6981 118.607L25.5628 114.259L45.4881 95.306L47.6618 93.2384L49.7294 95.412L64.2029 110.628L83.766 92.0189L85.9396 89.9513L88.0073 92.1249L102.136 106.978L121.699 88.3696L123.873 86.3019L125.941 88.4756L142.137 105.503L160.976 87.5831L165.111 91.9304L144.099 111.918ZM142.208 130.968L144.381 128.901L165.394 108.913L161.258 104.566L142.42 122.486L126.223 105.459L124.156 103.285L121.982 105.352L102.419 123.961L88.2901 109.108L86.2224 106.934L84.0487 109.002L64.4857 127.611L50.0122 112.395L47.9445 110.221L45.7709 112.289L25.8456 131.242L29.9808 135.59L47.7325 118.704L62.206 133.92L64.2737 136.093L66.4473 134.026L86.0104 115.417L100.139 130.27L102.207 132.444L104.381 130.376L123.944 111.767L140.14 128.795L142.208 130.968Z" fill="#5677FF"/>
</svg>
